<?xml version="1.0" encoding="UTF-8" standalone="no"?>
<!DOCTYPE svg PUBLIC "-//W3C//DTD SVG 1.1//EN"
 "http://www.w3.org/Graphics/SVG/1.1/DTD/svg11.dtd">
<!-- Generated by graphviz version 2.38.0 (20140413.2041)
 -->
<!-- Title: NFA::createNFA Pages: 1 -->
<svg width="529pt" height="256pt"
 viewBox="0.00 0.00 529.00 256.00" xmlns="http://www.w3.org/2000/svg" xmlns:xlink="http://www.w3.org/1999/xlink">
<g id="graph0" class="graph" transform="scale(1 1) rotate(0) translate(4 252)">
<title>NFA::createNFA</title>
<polygon fill="white" stroke="none" points="-4,4 -4,-252 525,-252 525,4 -4,4"/>
<!-- Node1 -->
<g id="node1" class="node"><title>Node1</title>
<g id="a_node1"><a xlink:title=" ">
<polygon fill="#bfbfbf" stroke="black" points="0,-114.5 0,-133.5 89,-133.5 89,-114.5 0,-114.5"/>
<text text-anchor="middle" x="44.5" y="-121.5" font-family="Helvetica,sans-Serif" font-size="10.00">NFA::createNFA</text>
</a>
</g>
</g>
<!-- Node2 -->
<g id="node2" class="node"><title>Node2</title>
<g id="a_node2"><a xlink:href="class_node.html#acd881a78be21565ea85abdd21d701b4e" target="_top" xlink:title=" ">
<polygon fill="white" stroke="black" points="133.5,-228.5 133.5,-247.5 243.5,-247.5 243.5,-228.5 133.5,-228.5"/>
<text text-anchor="middle" x="188.5" y="-235.5" font-family="Helvetica,sans-Serif" font-size="10.00">Node::addAdjoinNode</text>
</a>
</g>
</g>
<!-- Node1&#45;&gt;Node2 -->
<g id="edge1" class="edge"><title>Node1&#45;&gt;Node2</title>
<path fill="none" stroke="midnightblue" d="M51.7571,-133.782C63.8419,-151.96 92.1213,-191.169 125,-214 130.973,-218.148 137.759,-221.701 144.605,-224.704"/>
<polygon fill="midnightblue" stroke="midnightblue" points="143.322,-227.96 153.905,-228.46 145.944,-221.47 143.322,-227.96"/>
</g>
<!-- Node5 -->
<g id="node5" class="node"><title>Node5</title>
<g id="a_node5"><a xlink:href="class_regular_rule.html#a76557a0426db3910e2fad92b00c8c1d9" target="_top" xlink:title=" ">
<polygon fill="white" stroke="black" points="138,-152.5 138,-171.5 239,-171.5 239,-152.5 138,-152.5"/>
<text text-anchor="middle" x="188.5" y="-159.5" font-family="Helvetica,sans-Serif" font-size="10.00">RegularRule::check</text>
</a>
</g>
</g>
<!-- Node1&#45;&gt;Node5 -->
<g id="edge4" class="edge"><title>Node1&#45;&gt;Node5</title>
<path fill="none" stroke="midnightblue" d="M81.3326,-133.589C99.6634,-138.494 122.178,-144.52 141.75,-149.757"/>
<polygon fill="midnightblue" stroke="midnightblue" points="141.114,-153.21 151.679,-152.414 142.924,-146.448 141.114,-153.21"/>
</g>
<!-- Node6 -->
<g id="node6" class="node"><title>Node6</title>
<g id="a_node6"><a xlink:href="class_assist_stack.html#a0ebb5a584594a4d37dc4ab2bcbafe170" target="_top" xlink:title=" ">
<polygon fill="white" stroke="black" points="295,-171.5 295,-190.5 387,-190.5 387,-171.5 295,-171.5"/>
<text text-anchor="middle" x="341" y="-178.5" font-family="Helvetica,sans-Serif" font-size="10.00">AssistStack::pop</text>
</a>
</g>
</g>
<!-- Node1&#45;&gt;Node6 -->
<g id="edge9" class="edge"><title>Node1&#45;&gt;Node6</title>
<path fill="none" stroke="midnightblue" d="M54.665,-133.615C68.4166,-147.265 95.8971,-171.645 125,-181 177.254,-197.797 240.414,-195.298 284.711,-190.128"/>
<polygon fill="midnightblue" stroke="midnightblue" points="285.217,-193.592 294.706,-188.879 284.349,-186.646 285.217,-193.592"/>
</g>
<!-- Node7 -->
<g id="node7" class="node"><title>Node7</title>
<g id="a_node7"><a xlink:href="class_assist_stack.html#abab4866d9142910f1dd6d629a3b943db" target="_top" xlink:title=" ">
<polygon fill="white" stroke="black" points="292.5,-124.5 292.5,-143.5 389.5,-143.5 389.5,-124.5 292.5,-124.5"/>
<text text-anchor="middle" x="341" y="-131.5" font-family="Helvetica,sans-Serif" font-size="10.00">AssistStack::push</text>
</a>
</g>
</g>
<!-- Node1&#45;&gt;Node7 -->
<g id="edge11" class="edge"><title>Node1&#45;&gt;Node7</title>
<path fill="none" stroke="midnightblue" d="M89.2716,-125.486C140.407,-127.223 225.209,-130.102 281.84,-132.025"/>
<polygon fill="midnightblue" stroke="midnightblue" points="281.959,-135.531 292.072,-132.373 282.197,-128.535 281.959,-135.531"/>
</g>
<!-- Node8 -->
<g id="node8" class="node"><title>Node8</title>
<g id="a_node8"><a xlink:href="class_regular_rule.html#aac1670b45f3b7cf86efa1cdbb574f75a" target="_top" xlink:title=" ">
<polygon fill="white" stroke="black" points="125,-76.5 125,-95.5 252,-95.5 252,-76.5 125,-76.5"/>
<text text-anchor="middle" x="188.5" y="-83.5" font-family="Helvetica,sans-Serif" font-size="10.00">RegularRule::getAlphabet</text>
</a>
</g>
</g>
<!-- Node1&#45;&gt;Node8 -->
<g id="edge7" class="edge"><title>Node1&#45;&gt;Node8</title>
<path fill="none" stroke="midnightblue" d="M81.3326,-114.411C99.6634,-109.506 122.178,-103.48 141.75,-98.2429"/>
<polygon fill="midnightblue" stroke="midnightblue" points="142.924,-101.552 151.679,-95.5859 141.114,-94.7901 142.924,-101.552"/>
</g>
<!-- Node9 -->
<g id="node9" class="node"><title>Node9</title>
<g id="a_node9"><a xlink:href="class_module_stack.html#a3d33de6eb7ac35234e2502c30d06735a" target="_top" xlink:title=" ">
<polygon fill="white" stroke="black" points="141,-38.5 141,-57.5 236,-57.5 236,-38.5 141,-38.5"/>
<text text-anchor="middle" x="188.5" y="-45.5" font-family="Helvetica,sans-Serif" font-size="10.00">ModuleStack::pop</text>
</a>
</g>
</g>
<!-- Node1&#45;&gt;Node9 -->
<g id="edge8" class="edge"><title>Node1&#45;&gt;Node9</title>
<path fill="none" stroke="midnightblue" d="M56.3364,-114.443C70.9853,-101.962 98.3502,-80.1564 125,-67 129.586,-64.7361 134.495,-62.6803 139.472,-60.8294"/>
<polygon fill="midnightblue" stroke="midnightblue" points="140.747,-64.0921 149.058,-57.5219 138.464,-57.4749 140.747,-64.0921"/>
</g>
<!-- Node10 -->
<g id="node10" class="node"><title>Node10</title>
<g id="a_node10"><a xlink:href="class_module_stack.html#a27bb47de41fc0ba12ab000db8e1b375f" target="_top" xlink:title=" ">
<polygon fill="white" stroke="black" points="138,-0.5 138,-19.5 239,-19.5 239,-0.5 138,-0.5"/>
<text text-anchor="middle" x="188.5" y="-7.5" font-family="Helvetica,sans-Serif" font-size="10.00">ModuleStack::push</text>
</a>
</g>
</g>
<!-- Node1&#45;&gt;Node10 -->
<g id="edge10" class="edge"><title>Node1&#45;&gt;Node10</title>
<path fill="none" stroke="midnightblue" d="M50.9332,-114.331C62.2057,-95.1492 90.0262,-52.1422 125,-29 128.115,-26.9387 131.463,-25.0932 134.933,-23.4423"/>
<polygon fill="midnightblue" stroke="midnightblue" points="136.451,-26.6011 144.325,-19.5116 133.749,-20.1439 136.451,-26.6011"/>
</g>
<!-- Node3 -->
<g id="node3" class="node"><title>Node3</title>
<g id="a_node3"><a xlink:href="class_adjoin_node.html#a1bd112005c4d93ca42af49664d05803f" target="_top" xlink:title=" ">
<polygon fill="white" stroke="black" points="288,-228.5 288,-247.5 394,-247.5 394,-228.5 288,-228.5"/>
<text text-anchor="middle" x="341" y="-235.5" font-family="Helvetica,sans-Serif" font-size="10.00">AdjoinNode::setNext</text>
</a>
</g>
</g>
<!-- Node2&#45;&gt;Node3 -->
<g id="edge2" class="edge"><title>Node2&#45;&gt;Node3</title>
<path fill="none" stroke="midnightblue" d="M243.834,-238C254.793,-238 266.394,-238 277.604,-238"/>
<polygon fill="midnightblue" stroke="midnightblue" points="277.758,-241.5 287.758,-238 277.758,-234.5 277.758,-241.5"/>
</g>
<!-- Node4 -->
<g id="node4" class="node"><title>Node4</title>
<g id="a_node4"><a xlink:href="class_adjoin_node.html#aea0c022a3a9f32bf7083758faa236bc0" target="_top" xlink:title=" ">
<polygon fill="white" stroke="black" points="430,-228.5 430,-247.5 521,-247.5 521,-228.5 430,-228.5"/>
<text text-anchor="middle" x="475.5" y="-235.5" font-family="Helvetica,sans-Serif" font-size="10.00">AdjoinNode::next</text>
</a>
</g>
</g>
<!-- Node3&#45;&gt;Node4 -->
<g id="edge3" class="edge"><title>Node3&#45;&gt;Node4</title>
<path fill="none" stroke="midnightblue" d="M394.368,-238C402.699,-238 411.336,-238 419.721,-238"/>
<polygon fill="midnightblue" stroke="midnightblue" points="419.786,-241.5 429.786,-238 419.786,-234.5 419.786,-241.5"/>
</g>
<!-- Node5&#45;&gt;Node6 -->
<g id="edge5" class="edge"><title>Node5&#45;&gt;Node6</title>
<path fill="none" stroke="midnightblue" d="M239.196,-168.274C253.805,-170.118 269.872,-172.147 284.803,-174.032"/>
<polygon fill="midnightblue" stroke="midnightblue" points="284.567,-177.529 294.926,-175.31 285.443,-170.585 284.567,-177.529"/>
</g>
<!-- Node5&#45;&gt;Node7 -->
<g id="edge6" class="edge"><title>Node5&#45;&gt;Node7</title>
<path fill="none" stroke="midnightblue" d="M239.196,-152.754C252.976,-150.191 268.052,-147.386 282.249,-144.744"/>
<polygon fill="midnightblue" stroke="midnightblue" points="283.209,-148.126 292.4,-142.856 281.929,-141.244 283.209,-148.126"/>
</g>
</g>
</svg>
