<?xml version="1.0" encoding="UTF-8" standalone="no"?>
<!DOCTYPE svg PUBLIC "-//W3C//DTD SVG 1.1//EN"
 "http://www.w3.org/Graphics/SVG/1.1/DTD/svg11.dtd">
<!-- Generated by graphviz version 2.38.0 (20140413.2041)
 -->
<!-- Title: output_firstvt Pages: 1 -->
<svg width="282pt" height="28pt"
 viewBox="0.00 0.00 282.00 28.00" xmlns="http://www.w3.org/2000/svg" xmlns:xlink="http://www.w3.org/1999/xlink">
<g id="graph0" class="graph" transform="scale(1 1) rotate(0) translate(4 24)">
<title>output_firstvt</title>
<polygon fill="white" stroke="none" points="-4,4 -4,-24 278,-24 278,4 -4,4"/>
<!-- Node1 -->
<g id="node1" class="node"><title>Node1</title>
<g id="a_node1"><a xlink:title=" ">
<polygon fill="#bfbfbf" stroke="black" points="0,-0.5 0,-19.5 71,-19.5 71,-0.5 0,-0.5"/>
<text text-anchor="middle" x="35.5" y="-7.5" font-family="Helvetica,sans-Serif" font-size="10.00">output_firstvt</text>
</a>
</g>
</g>
<!-- Node2 -->
<g id="node2" class="node"><title>Node2</title>
<g id="a_node2"><a xlink:href="_operator-precedence_01_parsing_8cpp.html#ac658dda15265a58dea3fa01b751bb055" target="_top" xlink:title=" ">
<polygon fill="white" stroke="black" points="107,-0.5 107,-19.5 165,-19.5 165,-0.5 107,-0.5"/>
<text text-anchor="middle" x="136" y="-7.5" font-family="Helvetica,sans-Serif" font-size="10.00">get_firstvt</text>
</a>
</g>
</g>
<!-- Node1&#45;&gt;Node2 -->
<g id="edge1" class="edge"><title>Node1&#45;&gt;Node2</title>
<path fill="none" stroke="midnightblue" d="M71.2274,-10C79.4058,-10 88.171,-10 96.5043,-10"/>
<polygon fill="midnightblue" stroke="midnightblue" points="96.7522,-13.5001 106.752,-10 96.7522,-6.5001 96.7522,-13.5001"/>
</g>
<!-- Node3 -->
<g id="node3" class="node"><title>Node3</title>
<g id="a_node3"><a xlink:href="_operator-precedence_01_parsing_8cpp.html#a144ef9e538208b26f41a2feaa320d2a5" target="_top" xlink:title=" ">
<polygon fill="white" stroke="black" points="201,-0.5 201,-19.5 274,-19.5 274,-0.5 201,-0.5"/>
<text text-anchor="middle" x="237.5" y="-7.5" font-family="Helvetica,sans-Serif" font-size="10.00">is_terminator</text>
</a>
</g>
</g>
<!-- Node2&#45;&gt;Node3 -->
<g id="edge2" class="edge"><title>Node2&#45;&gt;Node3</title>
<path fill="none" stroke="midnightblue" d="M165.247,-10C173.175,-10 182.006,-10 190.677,-10"/>
<polygon fill="midnightblue" stroke="midnightblue" points="190.719,-13.5001 200.719,-10 190.719,-6.5001 190.719,-13.5001"/>
</g>
</g>
</svg>
