<?xml version="1.0"?>
<!-- Created by MetaPost 1.999 on 2015.10.15:1627 -->
<svg version="1.1" xmlns="http://www.w3.org/2000/svg" xmlns:xlink="http://www.w3.org/1999/xlink" width="578.900009" height="578.900009" viewBox="0 0 578.900009 578.900009">
<!-- Original BoundingBox: 21.099991 21.099991 578.900009 578.900009 -->
  <defs>
    <g transform="scale(0.009963,0.009963)" id="GLYPHgbkhei64_159">
      <path style="fill-rule: evenodd;" d="M164.000000 -732.000000L159.000000 -732.000000C163.000000 -672.000000,163.000000 -612.000000,163.000000 -582.000000C163.000000 -174.000000,127.000000 -78.000000,38.000000 38.000000C79.000000 47.000000,112.000000 60.000000,139.000000 77.000000C248.000000 -122.000000,242.000000 -214.000000,251.000000 -574.000000L251.000000 -659.000000C286.000000 -659.000000,378.000000 -663.000000,526.000000 -671.000000L526.000000 -579.000000L398.000000 -579.000000C352.000000 -579.000000,307.000000 -581.000000,261.000000 -583.000000L261.000000 -499.000000C302.000000 -501.000000,343.000000 -503.000000,398.000000 -503.000000L526.000000 -503.000000L526.000000 -411.000000L319.000000 -411.000000C320.000000 -397.000000,323.000000 -353.000000,323.000000 -266.000000C323.000000 -204.000000,321.000000 -158.000000,319.000000 -112.000000L407.000000 -112.000000L407.000000 -339.000000L761.000000 -339.000000L761.000000 -136.000000L853.000000 -136.000000C851.000000 -177.000000,849.000000 -218.000000,849.000000 -273.000000C849.000000 -328.000000,851.000000 -370.000000,853.000000 -411.000000L610.000000 -411.000000L610.000000 -503.000000L801.000000 -503.000000C851.000000 -503.000000,889.000000 -501.000000,927.000000 -499.000000L927.000000 -583.000000C882.000000 -581.000000,838.000000 -579.000000,801.000000 -579.000000L610.000000 -579.000000L610.000000 -679.000000C796.000000 -693.000000,810.000000 -698.000000,875.000000 -698.000000L886.000000 -698.000000L879.000000 -706.000000C838.000000 -754.000000,832.000000 -780.000000,828.000000 -800.000000C707.000000 -754.000000,534.000000 -732.000000,164.000000 -732.000000M532.000000 -259.000000C532.000000 -106.000000,479.000000 -25.000000,237.000000 34.000000L226.000000 37.000000L235.000000 43.000000C282.000000 74.000000,287.000000 98.000000,289.000000 108.000000C336.000000 93.000000,437.000000 60.000000,513.000000 -0.000000C622.000000 -86.000000,596.000000 -140.000000,631.000000 -285.000000C593.000000 -292.000000,569.000000 -295.000000,529.000000 -299.000000C531.000000 -287.000000,532.000000 -275.000000,532.000000 -259.000000M888.000000 97.000000C908.000000 65.000000,926.000000 42.000000,946.000000 27.000000C919.000000 8.000000,838.000000 -51.000000,662.000000 -140.000000L618.000000 -64.000000C738.000000 -6.000000,827.000000 47.000000,888.000000 97.000000"></path>
    </g>
    <g transform="scale(0.009963,0.009963)" id="GLYPHgbkhei64_165">
      <path style="fill-rule: evenodd;" d="M548.000000 -817.000000L448.000000 -817.000000C450.000000 -776.000000,452.000000 -714.000000,452.000000 -610.000000L112.000000 -610.000000C115.000000 -559.000000,116.000000 -491.000000,116.000000 -391.000000C116.000000 -292.000000,115.000000 -231.000000,112.000000 -186.000000L208.000000 -186.000000L208.000000 -245.000000L452.000000 -245.000000L452.000000 -70.000000C452.000000 -2.000000,449.000000 49.000000,443.000000 99.000000L548.000000 99.000000C544.000000 -10.000000,544.000000 -64.000000,544.000000 -82.000000L544.000000 -245.000000L788.000000 -245.000000L788.000000 -186.000000L884.000000 -186.000000C881.000000 -236.000000,880.000000 -298.000000,880.000000 -391.000000C880.000000 -486.000000,881.000000 -553.000000,884.000000 -610.000000L544.000000 -610.000000C544.000000 -693.000000,546.000000 -755.000000,548.000000 -817.000000M788.000000 -317.000000L544.000000 -317.000000L544.000000 -538.000000L788.000000 -538.000000M452.000000 -317.000000L208.000000 -317.000000L208.000000 -538.000000L452.000000 -538.000000"></path>
    </g>
    <g transform="scale(0.009963,0.009963)" id="GLYPHgbkhei43_73">
      <path style="fill-rule: evenodd;" d="M907.000000 -782.000000L93.000000 -782.000000C95.000000 -713.000000,97.000000 -639.000000,97.000000 -559.000000L97.000000 -148.000000C97.000000 -60.000000,95.000000 24.000000,93.000000 107.000000L181.000000 107.000000L181.000000 48.000000L819.000000 48.000000L819.000000 103.000000L907.000000 103.000000C905.000000 23.000000,903.000000 -58.000000,903.000000 -141.000000L903.000000 -559.000000C903.000000 -641.000000,905.000000 -714.000000,907.000000 -782.000000M819.000000 -21.000000L181.000000 -21.000000L181.000000 -714.000000L819.000000 -714.000000M621.000000 -618.000000L395.000000 -618.000000C346.000000 -618.000000,299.000000 -620.000000,253.000000 -622.000000L253.000000 -542.000000C299.000000 -544.000000,346.000000 -546.000000,395.000000 -546.000000L448.000000 -546.000000L448.000000 -427.000000L398.000000 -427.000000C320.000000 -427.000000,281.000000 -430.000000,268.000000 -431.000000L268.000000 -350.000000C281.000000 -351.000000,320.000000 -354.000000,398.000000 -354.000000L448.000000 -354.000000L448.000000 -189.000000L367.000000 -189.000000C312.000000 -189.000000,270.000000 -191.000000,229.000000 -193.000000L229.000000 -112.000000C270.000000 -114.000000,312.000000 -116.000000,367.000000 -116.000000L633.000000 -116.000000C716.000000 -116.000000,757.000000 -113.000000,771.000000 -112.000000L771.000000 -193.000000C757.000000 -192.000000,716.000000 -189.000000,633.000000 -189.000000L528.000000 -189.000000L528.000000 -354.000000L594.000000 -354.000000C677.000000 -354.000000,718.000000 -351.000000,732.000000 -350.000000L732.000000 -431.000000C718.000000 -430.000000,677.000000 -427.000000,594.000000 -427.000000L528.000000 -427.000000L528.000000 -546.000000L621.000000 -546.000000C667.000000 -546.000000,710.000000 -544.000000,751.000000 -542.000000L751.000000 -622.000000C706.000000 -620.000000,661.000000 -618.000000,621.000000 -618.000000M719.000000 -249.000000L633.000000 -339.000000L571.000000 -290.000000L644.000000 -200.000000C666.000000 -216.000000,683.000000 -227.000000,719.000000 -249.000000"></path>
    </g>
    <g transform="scale(0.009963,0.009963)" id="GLYPHgbkhei40_47">
      <path style="fill-rule: evenodd;" d="M971.000000 -90.000000C935.000000 -95.000000,903.000000 -109.000000,876.000000 -129.000000C855.000000 -26.000000,847.000000 -13.000000,805.000000 -13.000000L555.000000 -13.000000C525.000000 -13.000000,505.000000 -31.000000,505.000000 -86.000000L505.000000 -407.000000L612.000000 -446.000000L612.000000 -215.000000C612.000000 -178.000000,611.000000 -142.000000,608.000000 -93.000000L700.000000 -93.000000C698.000000 -127.000000,696.000000 -165.000000,696.000000 -215.000000L696.000000 -473.000000C732.000000 -485.000000,771.000000 -497.000000,811.000000 -509.000000L811.000000 -348.000000C812.000000 -338.000000,812.000000 -330.000000,812.000000 -322.000000C812.000000 -290.000000,807.000000 -269.000000,800.000000 -264.000000C787.000000 -254.000000,754.000000 -247.000000,707.000000 -242.000000C729.000000 -201.000000,738.000000 -177.000000,747.000000 -150.000000C871.000000 -183.000000,896.000000 -215.000000,896.000000 -314.000000L896.000000 -480.000000C896.000000 -567.000000,898.000000 -596.000000,901.000000 -624.000000C792.000000 -586.000000,734.000000 -568.000000,696.000000 -557.000000L696.000000 -680.000000C696.000000 -736.000000,698.000000 -779.000000,700.000000 -821.000000L608.000000 -821.000000C610.000000 -780.000000,612.000000 -739.000000,612.000000 -684.000000L612.000000 -530.000000L505.000000 -491.000000L505.000000 -555.000000C505.000000 -619.000000,507.000000 -668.000000,509.000000 -716.000000L421.000000 -716.000000C423.000000 -656.000000,425.000000 -599.000000,425.000000 -551.000000L425.000000 -464.000000C362.000000 -441.000000,327.000000 -436.000000,316.000000 -434.000000C330.000000 -410.000000,339.000000 -391.000000,357.000000 -347.000000C369.000000 -356.000000,382.000000 -365.000000,425.000000 -380.000000L425.000000 -47.000000C427.000000 26.000000,459.000000 64.000000,520.000000 64.000000L828.000000 64.000000C914.000000 64.000000,940.000000 21.000000,971.000000 -90.000000M372.000000 -460.000000L372.000000 -545.000000C350.000000 -542.000000,327.000000 -540.000000,259.000000 -540.000000L259.000000 -660.000000C259.000000 -719.000000,260.000000 -760.000000,263.000000 -798.000000L167.000000 -798.000000C169.000000 -752.000000,171.000000 -706.000000,171.000000 -660.000000L171.000000 -540.000000C98.000000 -540.000000,74.000000 -542.000000,50.000000 -545.000000L50.000000 -460.000000C86.000000 -462.000000,123.000000 -464.000000,171.000000 -464.000000L171.000000 -129.000000C90.000000 -103.000000,49.000000 -93.000000,35.000000 -89.000000C55.000000 -58.000000,70.000000 -28.000000,79.000000 3.000000C93.000000 -4.000000,136.000000 -28.000000,227.000000 -57.000000L380.000000 -109.000000L380.000000 -113.000000C380.000000 -147.000000,382.000000 -170.000000,385.000000 -199.000000C372.000000 -194.000000,310.000000 -167.000000,259.000000 -152.000000L259.000000 -464.000000C304.000000 -464.000000,338.000000 -462.000000,372.000000 -460.000000"></path>
    </g>
    <g transform="scale(0.009963,0.009963)" id="GLYPHgbkhei39_140">
      <path style="fill-rule: evenodd;" d="M541.000000 -452.000000L766.000000 -452.000000C832.000000 -452.000000,882.000000 -451.000000,931.000000 -448.000000L931.000000 -544.000000C851.000000 -538.000000,790.000000 -536.000000,730.000000 -536.000000L536.000000 -536.000000C536.000000 -636.000000,543.000000 -738.000000,562.000000 -798.000000C497.000000 -802.000000,476.000000 -805.000000,443.000000 -811.000000C448.000000 -767.000000,451.000000 -726.000000,451.000000 -669.000000C451.000000 -636.000000,450.000000 -592.000000,448.000000 -536.000000L234.000000 -536.000000C153.000000 -540.000000,122.000000 -541.000000,81.000000 -544.000000L81.000000 -448.000000C121.000000 -451.000000,168.000000 -452.000000,234.000000 -452.000000L443.000000 -452.000000C428.000000 -329.000000,333.000000 -94.000000,25.000000 6.000000C43.000000 22.000000,71.000000 47.000000,103.000000 97.000000C306.000000 -16.000000,425.000000 -129.000000,500.000000 -331.000000C548.000000 -224.000000,672.000000 -23.000000,881.000000 93.000000C904.000000 52.000000,925.000000 24.000000,951.000000 7.000000C643.000000 -133.000000,556.000000 -398.000000,541.000000 -452.000000"></path>
    </g>
    <g transform="scale(0.009963,0.009963)" id="GLYPHgbkhei60_198">
      <path style="fill-rule: evenodd;" d="M767.000000 -332.000000L767.000000 -423.000000L395.000000 -423.000000C327.000000 -423.000000,276.000000 -425.000000,225.000000 -427.000000L225.000000 -343.000000C288.000000 -345.000000,348.000000 -347.000000,398.000000 -347.000000L592.000000 -347.000000L467.000000 -284.000000C471.000000 -264.000000,475.000000 -243.000000,475.000000 -216.000000L207.000000 -216.000000C164.000000 -216.000000,122.000000 -217.000000,65.000000 -220.000000L65.000000 -132.000000C118.000000 -134.000000,168.000000 -136.000000,211.000000 -136.000000L475.000000 -136.000000L475.000000 -20.000000C475.000000 1.000000,468.000000 18.000000,441.000000 18.000000L327.000000 18.000000C347.000000 50.000000,360.000000 75.000000,371.000000 114.000000C507.000000 104.000000,564.000000 96.000000,564.000000 20.000000L564.000000 -136.000000L805.000000 -136.000000C832.000000 -136.000000,868.000000 -134.000000,931.000000 -132.000000L931.000000 -220.000000C868.000000 -217.000000,830.000000 -216.000000,805.000000 -216.000000L564.000000 -216.000000L564.000000 -243.000000C674.000000 -294.000000,675.000000 -313.000000,767.000000 -332.000000M72.000000 -413.000000L165.000000 -413.000000L165.000000 -522.000000L831.000000 -522.000000L831.000000 -417.000000L924.000000 -417.000000C923.000000 -426.000000,919.000000 -455.000000,919.000000 -512.000000C919.000000 -538.000000,919.000000 -565.000000,924.000000 -599.000000L712.000000 -599.000000C746.000000 -656.000000,786.000000 -712.000000,844.000000 -779.000000C814.000000 -792.000000,790.000000 -805.000000,735.000000 -835.000000C722.000000 -797.000000,708.000000 -759.000000,682.000000 -711.000000L618.000000 -599.000000L72.000000 -599.000000C77.000000 -565.000000,77.000000 -538.000000,77.000000 -512.000000C77.000000 -482.000000,76.000000 -452.000000,72.000000 -413.000000M384.000000 -771.000000C426.000000 -716.000000,461.000000 -668.000000,482.000000 -622.000000C508.000000 -638.000000,534.000000 -654.000000,565.000000 -679.000000C546.000000 -713.000000,518.000000 -752.000000,462.000000 -823.000000M323.000000 -667.000000C312.000000 -681.000000,278.000000 -726.000000,195.000000 -796.000000C182.000000 -783.000000,168.000000 -771.000000,125.000000 -738.000000C172.000000 -700.000000,214.000000 -654.000000,250.000000 -601.000000C268.000000 -623.000000,292.000000 -644.000000,323.000000 -667.000000"></path>
    </g>
    <g transform="scale(0.009963,0.009963)" id="GLYPHuhvb8a_32">
      <path style="fill-rule: evenodd;" d=""></path>
    </g>
    <g transform="scale(0.009963,0.009963)" id="GLYPHuhvb8a_49">
      <path style="fill-rule: evenodd;" d="M238.000000 -489.000000L238.000000 -0.000000L378.000000 -0.000000L378.000000 -709.000000L285.000000 -709.000000C263.000000 -625.000000,190.000000 -582.000000,68.000000 -582.000000L68.000000 -489.000000"></path>
    </g>
    <g transform="scale(0.009963,0.009963)" id="GLYPHuhvb8a_50">
      <path style="fill-rule: evenodd;" d="M512.000000 -125.000000L212.000000 -125.000000C230.000000 -163.000000,252.000000 -183.000000,356.000000 -259.000000C479.000000 -349.000000,515.000000 -403.000000,515.000000 -499.000000C515.000000 -636.000000,421.000000 -724.000000,272.000000 -724.000000C125.000000 -724.000000,39.000000 -637.000000,39.000000 -487.000000C39.000000 -481.000000,39.000000 -473.000000,40.000000 -462.000000L174.000000 -462.000000L174.000000 -485.000000C174.000000 -564.000000,211.000000 -610.000000,275.000000 -610.000000C337.000000 -610.000000,375.000000 -567.000000,375.000000 -496.000000C375.000000 -418.000000,350.000000 -387.000000,194.000000 -276.000000C74.000000 -194.000000,37.000000 -131.000000,30.000000 -0.000000L512.000000 -0.000000"></path>
    </g>
    <g transform="scale(0.009963,0.009963)" id="GLYPHuhvb8a_53">
      <path style="fill-rule: evenodd;" d="M489.000000 -709.000000L110.000000 -709.000000L47.000000 -314.000000L173.000000 -314.000000C188.000000 -349.000000,220.000000 -368.000000,263.000000 -368.000000C334.000000 -368.000000,377.000000 -317.000000,377.000000 -231.000000C377.000000 -148.000000,333.000000 -97.000000,263.000000 -97.000000C202.000000 -97.000000,168.000000 -128.000000,165.000000 -185.000000L27.000000 -185.000000C29.000000 -61.000000,123.000000 23.000000,261.000000 23.000000C413.000000 23.000000,517.000000 -81.000000,517.000000 -234.000000C517.000000 -379.000000,427.000000 -479.000000,296.000000 -479.000000C249.000000 -479.000000,214.000000 -467.000000,173.000000 -436.000000L196.000000 -584.000000L489.000000 -584.000000"></path>
    </g>
    <g transform="scale(0.009963,0.009963)" id="GLYPHuhvb8a_57">
      <path style="fill-rule: evenodd;" d="M38.000000 -165.000000C41.000000 -56.000000,133.000000 24.000000,255.000000 24.000000C346.000000 24.000000,415.000000 -14.000000,457.000000 -86.000000C494.000000 -149.000000,516.000000 -256.000000,516.000000 -370.000000C516.000000 -473.000000,499.000000 -555.000000,467.000000 -608.000000C422.000000 -684.000000,352.000000 -724.000000,267.000000 -724.000000C125.000000 -724.000000,28.000000 -622.000000,28.000000 -474.000000C28.000000 -328.000000,114.000000 -228.000000,240.000000 -228.000000C276.000000 -228.000000,310.000000 -238.000000,332.000000 -254.000000C345.000000 -263.000000,353.000000 -272.000000,376.000000 -298.000000C376.000000 -163.000000,338.000000 -96.000000,259.000000 -96.000000C210.000000 -96.000000,176.000000 -123.000000,173.000000 -165.000000M263.000000 -610.000000C331.000000 -610.000000,373.000000 -557.000000,373.000000 -474.000000C373.000000 -396.000000,329.000000 -344.000000,265.000000 -344.000000C201.000000 -344.000000,161.000000 -395.000000,161.000000 -476.000000C161.000000 -558.000000,201.000000 -610.000000,263.000000 -610.000000"></path>
    </g>
    <g transform="scale(0.009963,0.009963)" id="GLYPHuhvb8a_65">
      <path style="fill-rule: evenodd;" d="M501.000000 -147.000000L549.000000 -0.000000L703.000000 -0.000000L451.000000 -729.000000L285.000000 -729.000000L26.000000 -0.000000L179.000000 -0.000000L228.000000 -147.000000M460.000000 -272.000000L270.000000 -272.000000L365.000000 -557.000000"></path>
    </g>
    <g transform="scale(0.009963,0.009963)" id="GLYPHuhvb8a_67">
      <path style="fill-rule: evenodd;" d="M682.000000 -482.000000C677.000000 -545.000000,664.000000 -585.000000,633.000000 -626.000000C577.000000 -700.000000,487.000000 -741.000000,378.000000 -741.000000C172.000000 -741.000000,44.000000 -594.000000,44.000000 -358.000000C44.000000 -124.000000,171.000000 23.000000,374.000000 23.000000C555.000000 23.000000,676.000000 -82.000000,685.000000 -249.000000L539.000000 -249.000000C530.000000 -156.000000,471.000000 -103.000000,378.000000 -103.000000C262.000000 -103.000000,194.000000 -197.000000,194.000000 -356.000000C194.000000 -517.000000,265.000000 -613.000000,383.000000 -613.000000C435.000000 -613.000000,478.000000 -595.000000,506.000000 -560.000000C522.000000 -540.000000,530.000000 -521.000000,539.000000 -482.000000"></path>
    </g>
    <g transform="scale(0.009963,0.009963)" id="GLYPHuhvb8a_69">
      <path style="fill-rule: evenodd;" d="M229.000000 -314.000000L578.000000 -314.000000L578.000000 -439.000000L229.000000 -439.000000L229.000000 -604.000000L606.000000 -604.000000L606.000000 -729.000000L79.000000 -729.000000L79.000000 -0.000000L624.000000 -0.000000L624.000000 -125.000000L229.000000 -125.000000"></path>
    </g>
    <g transform="scale(0.009963,0.009963)" id="GLYPHuhvb8a_70">
      <path style="fill-rule: evenodd;" d="M224.000000 -314.000000L543.000000 -314.000000L543.000000 -439.000000L224.000000 -439.000000L224.000000 -604.000000L586.000000 -604.000000L586.000000 -729.000000L74.000000 -729.000000L74.000000 -0.000000L224.000000 -0.000000"></path>
    </g>
    <g transform="scale(0.009963,0.009963)" id="GLYPHuhvb8a_71">
      <path style="fill-rule: evenodd;" d="M711.000000 -392.000000L419.000000 -392.000000L419.000000 -267.000000L585.000000 -267.000000C581.000000 -226.000000,571.000000 -201.000000,549.000000 -175.000000C513.000000 -131.000000,458.000000 -105.000000,400.000000 -105.000000C279.000000 -105.000000,192.000000 -211.000000,192.000000 -361.000000C192.000000 -518.000000,269.000000 -613.000000,396.000000 -613.000000C448.000000 -613.000000,492.000000 -598.000000,525.000000 -569.000000C546.000000 -551.000000,557.000000 -534.000000,570.000000 -496.000000L711.000000 -496.000000C693.000000 -646.000000,571.000000 -741.000000,395.000000 -741.000000C185.000000 -741.000000,42.000000 -586.000000,42.000000 -359.000000C42.000000 -138.000000,186.000000 23.000000,383.000000 23.000000C481.000000 23.000000,547.000000 -12.000000,603.000000 -94.000000L621.000000 2.000000L711.000000 2.000000"></path>
    </g>
    <g transform="scale(0.009963,0.009963)" id="GLYPHuhvb8a_72">
      <path style="fill-rule: evenodd;" d="M507.000000 -331.000000L507.000000 -0.000000L657.000000 -0.000000L657.000000 -729.000000L506.000000 -729.000000L506.000000 -456.000000L218.000000 -456.000000L218.000000 -729.000000L68.000000 -729.000000L68.000000 -0.000000L218.000000 -0.000000L218.000000 -331.000000"></path>
    </g>
    <g transform="scale(0.009963,0.009963)" id="GLYPHuhvb8a_73">
      <path style="fill-rule: evenodd;" d="M213.000000 -729.000000L63.000000 -729.000000L63.000000 -0.000000L213.000000 -0.000000"></path>
    </g>
    <g transform="scale(0.009963,0.009963)" id="GLYPHuhvb8a_78">
      <path style="fill-rule: evenodd;" d="M511.000000 -0.000000L661.000000 -0.000000L661.000000 -729.000000L511.000000 -729.000000L511.000000 -233.000000L222.000000 -729.000000L68.000000 -729.000000L68.000000 -0.000000L218.000000 -0.000000L218.000000 -504.000000"></path>
    </g>
    <g transform="scale(0.009963,0.009963)" id="GLYPHuhvb8a_79">
      <path style="fill-rule: evenodd;" d="M390.000000 -741.000000C288.000000 -741.000000,204.000000 -707.000000,142.000000 -640.000000C77.000000 -570.000000,40.000000 -468.000000,40.000000 -359.000000C40.000000 -250.000000,77.000000 -147.000000,142.000000 -78.000000C205.000000 -10.000000,287.000000 23.000000,391.000000 23.000000C495.000000 23.000000,577.000000 -10.000000,640.000000 -78.000000C703.000000 -145.000000,742.000000 -251.000000,742.000000 -354.000000C742.000000 -468.000000,705.000000 -570.000000,640.000000 -640.000000C576.000000 -709.000000,495.000000 -741.000000,390.000000 -741.000000M391.000000 -613.000000C514.000000 -613.000000,592.000000 -513.000000,592.000000 -355.000000C592.000000 -206.000000,511.000000 -105.000000,391.000000 -105.000000C270.000000 -105.000000,190.000000 -206.000000,190.000000 -359.000000C190.000000 -512.000000,270.000000 -613.000000,391.000000 -613.000000"></path>
    </g>
    <g transform="scale(0.009963,0.009963)" id="GLYPHuhvb8a_82">
      <path style="fill-rule: evenodd;" d="M230.000000 -289.000000L402.000000 -289.000000C467.000000 -289.000000,495.000000 -263.000000,495.000000 -202.000000C495.000000 -196.000000,495.000000 -186.000000,494.000000 -173.000000C493.000000 -154.000000,493.000000 -136.000000,493.000000 -125.000000C493.000000 -57.000000,497.000000 -35.000000,516.000000 -0.000000L677.000000 -0.000000L677.000000 -27.000000C654.000000 -40.000000,645.000000 -55.000000,645.000000 -87.000000C641.000000 -302.000000,637.000000 -312.000000,544.000000 -352.000000C626.000000 -384.000000,667.000000 -443.000000,667.000000 -532.000000C667.000000 -590.000000,647.000000 -643.000000,612.000000 -679.000000C579.000000 -713.000000,533.000000 -729.000000,471.000000 -729.000000L80.000000 -729.000000L80.000000 -0.000000L230.000000 -0.000000M230.000000 -414.000000L230.000000 -604.000000L411.000000 -604.000000C454.000000 -604.000000,472.000000 -600.000000,490.000000 -585.000000C508.000000 -570.000000,517.000000 -545.000000,517.000000 -511.000000C517.000000 -476.000000,507.000000 -448.000000,490.000000 -433.000000C474.000000 -419.000000,454.000000 -414.000000,411.000000 -414.000000"></path>
    </g>
    <g transform="scale(0.009963,0.009963)" id="GLYPHuhvb8a_83">
      <path style="fill-rule: evenodd;" d="M607.000000 -507.000000C607.000000 -574.000000,592.000000 -618.000000,556.000000 -658.000000C507.000000 -712.000000,426.000000 -741.000000,321.000000 -741.000000C146.000000 -741.000000,45.000000 -659.000000,45.000000 -517.000000C45.000000 -404.000000,102.000000 -349.000000,250.000000 -321.000000L352.000000 -301.000000C452.000000 -282.000000,489.000000 -254.000000,489.000000 -195.000000C489.000000 -134.000000,433.000000 -97.000000,342.000000 -97.000000C240.000000 -97.000000,183.000000 -140.000000,178.000000 -218.000000L32.000000 -218.000000C41.000000 -62.000000,148.000000 23.000000,334.000000 23.000000C522.000000 23.000000,633.000000 -65.000000,633.000000 -213.000000C633.000000 -328.000000,575.000000 -388.000000,440.000000 -414.000000L326.000000 -436.000000C219.000000 -457.000000,188.000000 -478.000000,188.000000 -531.000000C188.000000 -586.000000,237.000000 -621.000000,314.000000 -621.000000C409.000000 -621.000000,462.000000 -581.000000,467.000000 -507.000000"></path>
    </g>
    <g transform="scale(0.009963,0.009963)" id="GLYPHuhvb8a_84">
      <path style="fill-rule: evenodd;" d="M385.000000 -604.000000L598.000000 -604.000000L598.000000 -729.000000L14.000000 -729.000000L14.000000 -604.000000L235.000000 -604.000000L235.000000 -0.000000L385.000000 -0.000000"></path>
    </g>
    <g transform="scale(0.009963,0.009963)" id="GLYPHuhvb8a_85">
      <path style="fill-rule: evenodd;" d="M504.000000 -729.000000L504.000000 -235.000000C504.000000 -147.000000,459.000000 -105.000000,365.000000 -105.000000C271.000000 -105.000000,226.000000 -147.000000,226.000000 -235.000000L226.000000 -729.000000L76.000000 -729.000000L76.000000 -235.000000C76.000000 -153.000000,98.000000 -95.000000,147.000000 -51.000000C200.000000 -3.000000,277.000000 23.000000,365.000000 23.000000C453.000000 23.000000,530.000000 -3.000000,583.000000 -51.000000C632.000000 -95.000000,654.000000 -153.000000,654.000000 -235.000000L654.000000 -729.000000"></path>
    </g>
    <g transform="scale(0.009963,0.009963)" id="GLYPHuhvb8a_86">
      <path style="fill-rule: evenodd;" d="M397.000000 -0.000000L647.000000 -729.000000L496.000000 -729.000000L337.000000 -180.000000L175.000000 -729.000000L24.000000 -729.000000L270.000000 -0.000000"></path>
    </g>
    <g transform="scale(0.009963,0.009963)" id="GLYPHuhvb8a_89">
      <path style="fill-rule: evenodd;" d="M419.000000 -270.000000L650.000000 -729.000000L482.000000 -729.000000L343.000000 -407.000000L194.000000 -729.000000L27.000000 -729.000000L269.000000 -270.000000L269.000000 -0.000000L419.000000 -0.000000"></path>
    </g>
  </defs>
  <path d="M519.800003 278.000000C519.800003 219.702820,496.638092 163.800323,455.418884 122.581116C414.199677 81.361908,358.297180 58.199997,300.000000 58.199997C241.702820 58.199997,185.800323 81.361908,144.581116 122.581116C103.361908 163.800323,80.199997 219.702820,80.199997 278.000000C80.199997 336.297180,103.361908 392.199677,144.581116 433.418884C185.800323 474.638092,241.702820 497.800003,300.000000 497.800003C358.297180 497.800003,414.199677 474.638092,455.418884 433.418884C496.638092 392.199677,519.800003 336.297180,519.800003 278.000000Z" style="stroke:rgb(0.000000%,0.000000%,0.000000%); stroke-width: 7.800003;stroke-linecap: round;stroke-linejoin: round;stroke-miterlimit: 10.000000;fill: none;"></path>
  <path d="M575.000000 278.000000C575.000000 205.062225,546.021271 135.120514,494.450378 83.549622C442.879486 31.978729,372.937775 3.000000,300.000000 3.000000C227.062225 3.000000,157.120514 31.978729,105.549622 83.549622C53.978729 135.120514,25.000000 205.062225,25.000000 278.000000C25.000000 350.937775,53.978729 420.879486,105.549622 472.450378C157.120514 524.021271,227.062225 553.000000,300.000000 553.000000C372.937775 553.000000,442.879486 524.021271,494.450378 472.450378C546.021271 420.879486,575.000000 350.937775,575.000000 278.000000Z" style="stroke:rgb(0.000000%,0.000000%,0.000000%); stroke-width: 7.800003;stroke-linecap: round;stroke-linejoin: round;stroke-miterlimit: 10.000000;fill: none;"></path>
  <path d="M445.300003 278.000000C445.300003 239.462326,429.988693 202.507675,402.740509 175.259491C375.492325 148.011307,338.537674 132.699997,300.000000 132.699997C261.462326 132.699997,224.507675 148.011307,197.259491 175.259491C170.011307 202.507675,154.699997 239.462326,154.699997 278.000000C154.699997 316.537674,170.011307 353.492325,197.259491 380.740509C224.507675 407.988693,261.462326 423.300003,300.000000 423.300003C338.537674 423.300003,375.492325 407.988693,402.740509 380.740509C429.988693 353.492325,445.300003 316.537674,445.300003 278.000000Z" style="stroke:rgb(0.000000%,0.000000%,0.000000%); stroke-width: 7.800003;stroke-linecap: round;stroke-linejoin: round;stroke-miterlimit: 10.000000;fill: none;"></path>
  <path d="M445.300003 278.000000L519.800003 278.000000" style="stroke:rgb(0.000000%,0.000000%,0.000000%); stroke-width: 7.800003;stroke-linecap: round;stroke-linejoin: round;stroke-miterlimit: 10.000000;fill: none;"></path>
  <path d="M154.699997 278.000000L80.199997 278.000000" style="stroke:rgb(0.000000%,0.000000%,0.000000%); stroke-width: 7.800003;stroke-linecap: round;stroke-linejoin: round;stroke-miterlimit: 10.000000;fill: none;"></path>
  <path d="M300.000000 104.500000L300.000000 132.699997" style="stroke:rgb(0.000000%,0.000000%,0.000000%); stroke-width: 7.800003;stroke-linecap: round;stroke-linejoin: round;stroke-miterlimit: 10.000000;fill: none;"></path>
  <path d="M300.000000 451.500000L300.000000 423.300003" style="stroke:rgb(0.000000%,0.000000%,0.000000%); stroke-width: 7.800003;stroke-linecap: round;stroke-linejoin: round;stroke-miterlimit: 10.000000;fill: none;"></path>
  <path d="M300.000000 257.600006L300.000000 278.000000L154.699997 278.000000Z" style="fill: rgb(0.000000%,0.000000%,0.000000%);stroke: none;"></path>
  <path d="M300.000000 298.399994L300.000000 278.000000L445.300003 278.000000Z" style="fill: rgb(0.000000%,0.000000%,0.000000%);stroke: none;"></path>
  <path d="M300.000000 257.600006L445.300003 278.000000L300.000000 298.399994L154.699997 278.000000L300.000000 257.600006" style="stroke:rgb(0.000000%,0.000000%,0.000000%); stroke-width: 7.800003;stroke-linecap: round;stroke-linejoin: round;stroke-miterlimit: 10.000000;fill: none;"></path>
  <path d="M445.300003 278.000000L154.699997 278.000000" style="stroke:rgb(0.000000%,0.000000%,0.000000%); stroke-width: 4.000000;stroke-linecap: round;stroke-linejoin: round;stroke-miterlimit: 10.000000;fill: none;"></path>
  <path d="M404.500000 196.899994C383.390884 193.046494,361.838440 192.238281,340.500000 194.500000C331.817139 195.420319,323.152557 196.858337,315.000000 200.000000C312.764816 200.861359,310.500000 202.210358,310.500000 204.500000L310.500000 410.000000L289.500000 410.000000L289.500000 204.500000C289.500000 202.210464,287.234360 200.862778,285.000000 200.000000C273.882187 195.706940,261.908142 194.500000,250.000000 194.500000L214.300003 194.500000L214.300003 174.100006C242.474152 168.116455,271.197479 165.100006,300.000000 165.100006C337.216461 165.100006,373.592010 176.169296,404.500000 196.899994Z" style="fill: rgb(0.000000%,0.000000%,0.000000%);stroke: none;"></path>
  <path d="M404.500000 196.899994C383.390884 193.046494,361.838440 192.238281,340.500000 194.500000C331.817139 195.420319,323.152557 196.858337,315.000000 200.000000C312.764816 200.861359,310.500000 202.210358,310.500000 204.500000L310.500000 410.000000L289.500000 410.000000L289.500000 204.500000C289.500000 202.210464,287.234360 200.862778,285.000000 200.000000C273.882187 195.706940,261.908142 194.500000,250.000000 194.500000L214.300003 194.500000L214.300003 174.100006C242.474152 168.116455,271.197479 165.100006,300.000000 165.100006C337.216461 165.100006,373.592010 176.169296,404.500000 196.899994" style="stroke:rgb(0.000000%,0.000000%,0.000000%); stroke-width: 4.000000;stroke-linecap: round;stroke-linejoin: round;stroke-miterlimit: 10.000000;fill: none;"></path>
  <path d="M378.000000 90.000000C408.726089 118.411118,433.093063 153.001984,449.500000 191.500000C461.195755 218.943451,468.699997 248.154053,468.699997 278.000000" style="stroke:rgb(0.000000%,0.000000%,0.000000%); stroke-width: 7.800003;stroke-linecap: round;stroke-miterlimit: 10.000000;fill: none;"></path>
  <path d="M222.000000 90.000000C191.273911 118.411118,166.906937 153.001984,150.500000 191.500000C138.804245 218.943451,131.300003 248.154053,131.300003 278.000000" style="stroke:rgb(0.000000%,0.000000%,0.000000%); stroke-width: 7.800003;stroke-linecap: round;stroke-miterlimit: 10.000000;fill: none;"></path>
  <path d="M222.000000 466.000000C191.273911 437.588882,166.906937 402.998016,150.500000 364.500000C138.804245 337.056549,131.300003 307.845947,131.300003 278.000000" style="stroke:rgb(0.000000%,0.000000%,0.000000%); stroke-width: 7.800003;stroke-linecap: round;stroke-miterlimit: 10.000000;fill: none;"></path>
  <path d="M378.000000 466.000000C408.726089 437.588882,433.093063 402.998016,449.500000 364.500000C461.195755 337.056549,468.699997 307.845947,468.699997 278.000000" style="stroke:rgb(0.000000%,0.000000%,0.000000%); stroke-width: 7.800003;stroke-linecap: round;stroke-miterlimit: 10.000000;fill: none;"></path>
  <path d="M425.500000 202.300003C433.619293 198.971207,441.623871 195.369156,449.500000 191.500000C463.339035 184.701553,476.762604 177.088181,489.699997 168.699997" style="stroke:rgb(0.000000%,0.000000%,0.000000%); stroke-width: 7.800003;stroke-linecap: round;stroke-miterlimit: 10.000000;fill: none;"></path>
  <path d="M174.500000 202.300003C166.380707 198.971207,158.376129 195.369156,150.500000 191.500000C136.660965 184.701553,123.237396 177.088181,110.300003 168.699997" style="stroke:rgb(0.000000%,0.000000%,0.000000%); stroke-width: 7.800003;stroke-linecap: round;stroke-miterlimit: 10.000000;fill: none;"></path>
  <path d="M174.500000 353.699997C166.380707 357.028793,158.376129 360.630844,150.500000 364.500000C136.660965 371.298447,123.237396 378.911819,110.300003 387.300003" style="stroke:rgb(0.000000%,0.000000%,0.000000%); stroke-width: 7.800003;stroke-linecap: round;stroke-miterlimit: 10.000000;fill: none;"></path>
  <path d="M425.500000 353.699997C433.619293 357.028793,441.623871 360.630844,449.500000 364.500000C463.339035 371.298447,476.762604 378.911819,489.699997 387.300003" style="stroke:rgb(0.000000%,0.000000%,0.000000%); stroke-width: 7.800003;stroke-linecap: round;stroke-miterlimit: 10.000000;fill: none;"></path>
  <path d="M300.000000 104.500000C316.130692 104.160080,332.196976 102.352631,348.000000 99.100006C358.263962 96.987457,368.421860 94.260422,378.000000 90.000000C384.154221 87.262573,390.017136 83.912323,395.500000 80.000000" style="stroke:rgb(0.000000%,0.000000%,0.000000%); stroke-width: 7.800003;stroke-linecap: round;stroke-miterlimit: 10.000000;fill: none;"></path>
  <path d="M300.000000 104.500000C283.869308 104.160080,267.803024 102.352631,252.000000 99.100006C241.736038 96.987457,231.578140 94.260422,222.000000 90.000000C215.845779 87.262573,209.982864 83.912323,204.500000 80.000000" style="stroke:rgb(0.000000%,0.000000%,0.000000%); stroke-width: 7.800003;stroke-linecap: round;stroke-miterlimit: 10.000000;fill: none;"></path>
  <path d="M300.000000 451.500000C283.869308 451.839920,267.803024 453.647369,252.000000 456.899994C241.736038 459.012543,231.578140 461.739578,222.000000 466.000000C215.845779 468.737427,209.982864 472.087677,204.500000 476.000000" style="stroke:rgb(0.000000%,0.000000%,0.000000%); stroke-width: 7.800003;stroke-linecap: round;stroke-miterlimit: 10.000000;fill: none;"></path>
  <path d="M300.000000 451.500000C316.130692 451.839920,332.196976 453.647369,348.000000 456.899994C358.263962 459.012543,368.421860 461.739578,378.000000 466.000000C384.154221 468.737427,390.017136 472.087677,395.500000 476.000000" style="stroke:rgb(0.000000%,0.000000%,0.000000%); stroke-width: 7.800003;stroke-linecap: round;stroke-miterlimit: 10.000000;fill: none;"></path>
  <path d="M348.000000 99.100006C366.323517 119.450500,381.645020 142.314926,393.500000 167.000000" style="stroke:rgb(0.000000%,0.000000%,0.000000%); stroke-width: 7.800003;stroke-linecap: round;stroke-miterlimit: 10.000000;fill: none;"></path>
  <path d="M252.000000 99.100006C233.676483 119.450500,218.354980 142.314926,206.500000 167.000000" style="stroke:rgb(0.000000%,0.000000%,0.000000%); stroke-width: 7.800003;stroke-linecap: round;stroke-miterlimit: 10.000000;fill: none;"></path>
  <path d="M252.000000 456.899994C233.676483 436.549500,218.354980 413.685074,206.500000 389.000000" style="stroke:rgb(0.000000%,0.000000%,0.000000%); stroke-width: 7.800003;stroke-linecap: round;stroke-miterlimit: 10.000000;fill: none;"></path>
  <path d="M348.000000 456.899994C366.323517 436.549500,381.645020 413.685074,393.500000 389.000000" style="stroke:rgb(0.000000%,0.000000%,0.000000%); stroke-width: 7.800003;stroke-linecap: round;stroke-miterlimit: 10.000000;fill: none;"></path>
  <g transform="matrix(4.925308,-6.304108,3.152054,2.462662,98.000000 160.000000)" style="fill: rgb(0.000000%,0.000000%,0.000000%);">
    <use xlink:href="#GLYPHgbkhei64_165"></use>
  </g>
  <g transform="matrix(6.784454,-4.239395,2.119705,3.392227,145.000000 100.000000)" style="fill: rgb(0.000000%,0.000000%,0.000000%);">
    <use xlink:href="#GLYPHgbkhei43_73"></use>
  </g>
  <g transform="matrix(7.727448,-2.070572,1.035278,3.863724,218.000000 63.000000)" style="fill: rgb(0.000000%,0.000000%,0.000000%);">
    <use xlink:href="#GLYPHgbkhei40_47"></use>
  </g>
  <g transform="matrix(7.727448,2.070572,-1.035278,3.863724,308.000000 40.000000)" style="fill: rgb(0.000000%,0.000000%,0.000000%);">
    <use xlink:href="#GLYPHgbkhei64_159"></use>
  </g>
  <g transform="matrix(6.784454,4.239395,-2.119705,3.392227,385.000000 59.000000)" style="fill: rgb(0.000000%,0.000000%,0.000000%);">
    <use xlink:href="#GLYPHgbkhei39_140"></use>
  </g>
  <g transform="matrix(4.925308,6.304108,-3.152054,2.462662,455.000000 98.000000)" style="fill: rgb(0.000000%,0.000000%,0.000000%);">
    <use xlink:href="#GLYPHgbkhei60_198"></use>
  </g>
  <g transform="matrix(-1.195984,4.854889,-4.854889,-1.195984,47.498306 197.300629)" style="fill: rgb(0.000000%,0.000000%,0.000000%);">
    <use xlink:href="#GLYPHuhvb8a_67"></use>
  </g>
  <g transform="matrix(-0.479965,4.976883,-4.976883,-0.479965,37.925720 234.662140)" style="fill: rgb(0.000000%,0.000000%,0.000000%);">
    <use xlink:href="#GLYPHuhvb8a_72"></use>
  </g>
  <g transform="matrix(0.022507,4.999924,-4.999924,0.022507,34.392136 272.257874)" style="fill: rgb(0.000000%,0.000000%,0.000000%);">
    <use xlink:href="#GLYPHuhvb8a_73"></use>
  </g>
  <g transform="matrix(0.524521,4.972382,-4.972382,0.524521,34.554626 287.929367)" style="fill: rgb(0.000000%,0.000000%,0.000000%);">
    <use xlink:href="#GLYPHuhvb8a_78"></use>
  </g>
  <g transform="matrix(1.238937,4.844055,-4.844055,1.238937,38.791122 326.261612)" style="fill: rgb(0.000000%,0.000000%,0.000000%);">
    <use xlink:href="#GLYPHuhvb8a_65"></use>
  </g>
  <g transform="matrix(1.719513,4.695053,-4.695053,1.719513,65.307068 356.569183)" style="fill: rgb(0.000000%,0.000000%,0.000000%);">
    <use xlink:href="#GLYPHuhvb8a_32"></use>
  </g>
  <g transform="matrix(2.182388,4.498596,-4.498596,2.182388,54.208176 377.265411)" style="fill: rgb(0.000000%,0.000000%,0.000000%);">
    <use xlink:href="#GLYPHuhvb8a_85"></use>
  </g>
  <g transform="matrix(2.810593,4.135284,-4.135284,2.810593,70.718201 412.120087)" style="fill: rgb(0.000000%,0.000000%,0.000000%);">
    <use xlink:href="#GLYPHuhvb8a_78"></use>
  </g>
  <g transform="matrix(3.211899,3.831940,-3.831940,3.211899,92.019333 443.297943)" style="fill: rgb(0.000000%,0.000000%,0.000000%);">
    <use xlink:href="#GLYPHuhvb8a_73"></use>
  </g>
  <g transform="matrix(3.561249,3.509674,-3.509674,3.561249,102.086334 455.180603)" style="fill: rgb(0.000000%,0.000000%,0.000000%);">
    <use xlink:href="#GLYPHuhvb8a_86"></use>
  </g>
  <g transform="matrix(3.998795,3.001556,-3.001556,3.998795,127.579636 480.074905)" style="fill: rgb(0.000000%,0.000000%,0.000000%);">
    <use xlink:href="#GLYPHuhvb8a_69"></use>
  </g>
  <g transform="matrix(4.378052,2.415085,-2.415085,4.378052,156.264755 501.384842)" style="fill: rgb(0.000000%,0.000000%,0.000000%);">
    <use xlink:href="#GLYPHuhvb8a_82"></use>
  </g>
  <g transform="matrix(4.671936,1.781235,-1.781235,4.671936,190.229584 519.295578)" style="fill: rgb(0.000000%,0.000000%,0.000000%);">
    <use xlink:href="#GLYPHuhvb8a_83"></use>
  </g>
  <g transform="matrix(4.819870,1.329880,-1.329880,4.819870,222.696304 532.175400)" style="fill: rgb(0.000000%,0.000000%,0.000000%);">
    <use xlink:href="#GLYPHuhvb8a_73"></use>
  </g>
  <g transform="matrix(4.919510,0.893784,-0.893784,4.919510,237.628494 536.220169)" style="fill: rgb(0.000000%,0.000000%,0.000000%);">
    <use xlink:href="#GLYPHuhvb8a_84"></use>
  </g>
  <g transform="matrix(4.993515,0.255127,-0.255127,4.993515,269.877396 541.926407)" style="fill: rgb(0.000000%,0.000000%,0.000000%);">
    <use xlink:href="#GLYPHuhvb8a_89"></use>
  </g>
  <g transform="matrix(4.995117,-0.220108,0.220108,4.995117,303.963364 525.465546)" style="fill: rgb(0.000000%,0.000000%,0.000000%);">
    <use xlink:href="#GLYPHuhvb8a_32"></use>
  </g>
  <g transform="matrix(4.943619,-0.748520,0.748520,4.943619,320.434250 542.285706)" style="fill: rgb(0.000000%,0.000000%,0.000000%);">
    <use xlink:href="#GLYPHuhvb8a_79"></use>
  </g>
  <g transform="matrix(4.791107,-1.430054,1.430054,4.791107,361.273514 536.479111)" style="fill: rgb(0.000000%,0.000000%,0.000000%);">
    <use xlink:href="#GLYPHuhvb8a_70"></use>
  </g>
  <g transform="matrix(4.644165,-1.852570,1.852570,4.644165,385.220108 510.360229)" style="fill: rgb(0.000000%,0.000000%,0.000000%);">
    <use xlink:href="#GLYPHuhvb8a_32"></use>
  </g>
  <g transform="matrix(4.421616,-2.334366,2.334366,4.421616,406.312668 520.818726)" style="fill: rgb(0.000000%,0.000000%,0.000000%);">
    <use xlink:href="#GLYPHuhvb8a_71"></use>
  </g>
  <g transform="matrix(4.036713,-2.950439,2.950439,4.036713,443.044708 501.831055)" style="fill: rgb(0.000000%,0.000000%,0.000000%);">
    <use xlink:href="#GLYPHuhvb8a_69"></use>
  </g>
  <g transform="matrix(3.566513,-3.504257,3.504257,3.566513,471.476944 480.137924)" style="fill: rgb(0.000000%,0.000000%,0.000000%);">
    <use xlink:href="#GLYPHuhvb8a_79"></use>
  </g>
  <g transform="matrix(3.021240,-3.983994,3.983994,3.021240,500.783981 451.082077)" style="fill: rgb(0.000000%,0.000000%,0.000000%);">
    <use xlink:href="#GLYPHuhvb8a_83"></use>
  </g>
  <g transform="matrix(2.436676,-4.366074,4.366074,2.436676,522.193085 422.566299)" style="fill: rgb(0.000000%,0.000000%,0.000000%);">
    <use xlink:href="#GLYPHuhvb8a_67"></use>
  </g>
  <g transform="matrix(1.985397,-4.588928,4.588928,1.985397,540.995346 389.815277)" style="fill: rgb(0.000000%,0.000000%,0.000000%);">
    <use xlink:href="#GLYPHuhvb8a_73"></use>
  </g>
  <g transform="matrix(1.540756,-4.756699,4.756699,1.540756,547.103226 375.491074)" style="fill: rgb(0.000000%,0.000000%,0.000000%);">
    <use xlink:href="#GLYPHuhvb8a_69"></use>
  </g>
  <g transform="matrix(0.863037,-4.924927,4.924927,0.863037,557.945953 341.441757)" style="fill: rgb(0.000000%,0.000000%,0.000000%);">
    <use xlink:href="#GLYPHuhvb8a_78"></use>
  </g>
  <g transform="matrix(0.140457,-4.998016,4.998016,0.140457,563.863632 303.406219)" style="fill: rgb(0.000000%,0.000000%,0.000000%);">
    <use xlink:href="#GLYPHuhvb8a_67"></use>
  </g>
  <g transform="matrix(-0.557022,-4.968872,4.968872,-0.557022,565.317505 264.965317)" style="fill: rgb(0.000000%,0.000000%,0.000000%);">
    <use xlink:href="#GLYPHuhvb8a_69"></use>
  </g>
  <g transform="matrix(-1.217041,-4.849625,4.849625,-1.217041,560.651413 229.707993)" style="fill: rgb(0.000000%,0.000000%,0.000000%);">
    <use xlink:href="#GLYPHuhvb8a_83"></use>
  </g>
  <g transform="matrix(3.000000,-0.000000,-0.000000,1.800018,268.000000 483.000000)" style="fill: rgb(0.000000%,0.000000%,0.000000%);">
    <use xlink:href="#GLYPHuhvb8a_49"></use>
    <use xlink:href="#GLYPHuhvb8a_57" x="5.560087"></use>
    <use xlink:href="#GLYPHuhvb8a_53" x="11.120175"></use>
    <use xlink:href="#GLYPHuhvb8a_50" x="16.680262"></use>
  </g>
</svg>
